<svg id="visual" viewBox="0 0 1920 1080" width="1920" height="1080" xmlns="http://www.w3.org/2000/svg" xmlns:xlink="http://www.w3.org/1999/xlink" version="1.1"><rect x="0" y="0" width="1920" height="1080" fill="#cfd7e0"></rect><defs><linearGradient id="grad1_0" x1="43.8%" y1="0%" x2="100%" y2="100%"><stop offset="14.444444444444446%" stop-color="#2e3335" stop-opacity="1"></stop><stop offset="85.55555555555554%" stop-color="#2e3335" stop-opacity="1"></stop></linearGradient></defs><defs><linearGradient id="grad1_1" x1="43.8%" y1="0%" x2="100%" y2="100%"><stop offset="14.444444444444446%" stop-color="#2e3335" stop-opacity="1"></stop><stop offset="85.55555555555554%" stop-color="#5e6569" stop-opacity="1"></stop></linearGradient></defs><defs><linearGradient id="grad1_2" x1="43.8%" y1="0%" x2="100%" y2="100%"><stop offset="14.444444444444446%" stop-color="#949ca3" stop-opacity="1"></stop><stop offset="85.55555555555554%" stop-color="#5e6569" stop-opacity="1"></stop></linearGradient></defs><defs><linearGradient id="grad1_3" x1="43.8%" y1="0%" x2="100%" y2="100%"><stop offset="14.444444444444446%" stop-color="#949ca3" stop-opacity="1"></stop><stop offset="85.55555555555554%" stop-color="#cfd7e0" stop-opacity="1"></stop></linearGradient></defs><defs><linearGradient id="grad2_0" x1="0%" y1="0%" x2="56.3%" y2="100%"><stop offset="14.444444444444446%" stop-color="#2e3335" stop-opacity="1"></stop><stop offset="85.55555555555554%" stop-color="#2e3335" stop-opacity="1"></stop></linearGradient></defs><defs><linearGradient id="grad2_1" x1="0%" y1="0%" x2="56.3%" y2="100%"><stop offset="14.444444444444446%" stop-color="#5e6569" stop-opacity="1"></stop><stop offset="85.55555555555554%" stop-color="#2e3335" stop-opacity="1"></stop></linearGradient></defs><defs><linearGradient id="grad2_2" x1="0%" y1="0%" x2="56.3%" y2="100%"><stop offset="14.444444444444446%" stop-color="#5e6569" stop-opacity="1"></stop><stop offset="85.55555555555554%" stop-color="#949ca3" stop-opacity="1"></stop></linearGradient></defs><defs><linearGradient id="grad2_3" x1="0%" y1="0%" x2="56.3%" y2="100%"><stop offset="14.444444444444446%" stop-color="#cfd7e0" stop-opacity="1"></stop><stop offset="85.55555555555554%" stop-color="#949ca3" stop-opacity="1"></stop></linearGradient></defs><g transform="translate(1920, 0)"><path d="M0 972C-51.4 987.2 -102.8 1002.3 -136.8 951.2C-170.8 900.1 -187.3 782.8 -216.9 738.8C-246.5 694.8 -289.1 724.1 -341.5 747.7C-393.8 771.3 -456 789.2 -492.5 766.4C-529 743.6 -539.9 680.2 -542.9 626.5C-545.9 572.8 -541 528.9 -606.1 525.2C-671.2 521.5 -806.3 557.9 -804.2 516.9C-802.2 475.8 -663.1 357.1 -683.1 312C-703.2 266.8 -882.5 295.1 -932.6 273.8C-982.8 252.6 -903.8 181.7 -888.9 127.8C-873.9 73.9 -923 36.9 -972 0L0 0Z" fill="#b1b9c1"></path><path d="M0 729C-38.5 740.4 -77.1 751.7 -102.6 713.4C-128.1 675.1 -140.5 587.1 -162.7 554.1C-184.9 521.1 -216.8 543.1 -256.1 560.8C-295.4 578.5 -342 591.9 -369.4 574.8C-396.8 557.7 -404.9 510.1 -407.2 469.9C-409.4 429.6 -405.8 396.7 -454.6 393.9C-503.4 391.1 -604.7 418.5 -603.2 387.6C-601.7 356.8 -497.3 267.9 -512.4 234C-527.4 200.1 -661.9 221.3 -699.5 205.4C-737.1 189.4 -677.9 136.3 -666.6 95.8C-655.4 55.4 -692.2 27.7 -729 0L0 0Z" fill="#798085"></path><path d="M0 486C-25.7 493.6 -51.4 501.2 -68.4 475.6C-85.4 450.1 -93.7 391.4 -108.5 369.4C-123.3 347.4 -144.5 362.1 -170.7 373.9C-196.9 385.7 -228 394.6 -246.3 383.2C-264.5 371.8 -269.9 340.1 -271.4 313.3C-272.9 286.4 -270.5 264.5 -303.1 262.6C-335.6 260.7 -403.1 279 -402.1 258.4C-401.1 237.9 -331.5 178.6 -341.6 156C-351.6 133.4 -441.2 147.6 -466.3 136.9C-491.4 126.3 -451.9 90.9 -444.4 63.9C-437 36.9 -461.5 18.5 -486 0L0 0Z" fill="#454b4e"></path><path d="M0 243C-12.8 246.8 -25.7 250.6 -34.2 237.8C-42.7 225 -46.8 195.7 -54.2 184.7C-61.6 173.7 -72.3 181 -85.4 186.9C-98.5 192.8 -114 197.3 -123.1 191.6C-132.3 185.9 -135 170 -135.7 156.6C-136.5 143.2 -135.3 132.2 -151.5 131.3C-167.8 130.4 -201.6 139.5 -201.1 129.2C-200.6 118.9 -165.8 89.3 -170.8 78C-175.8 66.7 -220.6 73.8 -233.2 68.5C-245.7 63.1 -226 45.4 -222.2 31.9C-218.5 18.5 -230.7 9.2 -243 0L0 0Z" fill="#2e3335"></path></g><g transform="translate(0, 1080)"><path d="M0 -972C35.1 -890.4 70.1 -808.8 117 -813.6C163.8 -818.4 222.4 -909.7 273.8 -932.6C325.3 -955.6 369.5 -910.3 380.9 -834.1C392.4 -758 371 -651 397.4 -618.3C423.8 -585.6 497.9 -627.2 539 -622C580 -616.8 588 -564.9 615.2 -533.1C642.4 -501.2 688.7 -489.5 722.6 -464.4C756.6 -439.3 778.1 -400.8 790.5 -361C802.9 -321.2 806.2 -280.1 825.2 -242.3C844.1 -204.5 878.6 -170 905.7 -130.2C932.8 -90.4 952.4 -45.2 972 0L0 0Z" fill="#b1b9c1"></path><path d="M0 -729C26.3 -667.8 52.6 -606.6 87.7 -610.2C122.9 -613.8 166.8 -682.3 205.4 -699.5C243.9 -716.7 277.1 -682.7 285.7 -625.6C294.3 -568.5 278.2 -488.3 298 -463.7C317.8 -439.2 373.4 -470.4 404.2 -466.5C435 -462.6 441 -423.7 461.4 -399.8C481.8 -375.9 516.5 -367.1 542 -348.3C567.4 -329.5 583.5 -300.6 592.9 -270.7C602.2 -240.9 604.7 -210.1 618.9 -181.7C633.1 -153.4 659 -127.5 679.3 -97.7C699.6 -67.8 714.3 -33.9 729 0L0 0Z" fill="#798085"></path><path d="M0 -486C17.5 -445.2 35.1 -404.4 58.5 -406.8C81.9 -409.2 111.2 -454.8 136.9 -466.3C162.6 -477.8 184.8 -455.1 190.5 -417.1C196.2 -379 185.5 -325.5 198.7 -309.2C211.9 -292.8 248.9 -313.6 269.5 -311C290 -308.4 294 -282.4 307.6 -266.5C321.2 -250.6 344.4 -244.8 361.3 -232.2C378.3 -219.7 389 -200.4 395.2 -180.5C401.4 -160.6 403.1 -140 412.6 -121.1C422 -102.3 439.3 -85 452.8 -65.1C466.4 -45.2 476.2 -22.6 486 0L0 0Z" fill="#454b4e"></path><path d="M0 -243C8.8 -222.6 17.5 -202.2 29.2 -203.4C41 -204.6 55.6 -227.4 68.5 -233.2C81.3 -238.9 92.4 -227.6 95.2 -208.5C98.1 -189.5 92.7 -162.8 99.3 -154.6C105.9 -146.4 124.5 -156.8 134.7 -155.5C145 -154.2 147 -141.2 153.8 -133.3C160.6 -125.3 172.2 -122.4 180.7 -116.1C189.1 -109.8 194.5 -100.2 197.6 -90.2C200.7 -80.3 201.6 -70 206.3 -60.6C211 -51.1 219.7 -42.5 226.4 -32.6C233.2 -22.6 238.1 -11.3 243 0L0 0Z" fill="#2e3335"></path></g></svg>